<?xml version="1.0" encoding="UTF-8"?>
<svg id="Layer_1" xmlns="http://www.w3.org/2000/svg" xmlns:xlink="http://www.w3.org/1999/xlink" version="1.1" viewBox="0 0 1045.74 1091.55">
  <!-- Generator: Adobe Illustrator 30.0.0, SVG Export Plug-In . SVG Version: 2.1.1 Build 123)  -->
  <defs>
    <style>
      .st0 {
        fill: url(#radial-gradient34);
      }

      .st1 {
        fill: url(#radial-gradient33);
      }

      .st2 {
        fill: url(#radial-gradient32);
      }

      .st3 {
        fill: url(#radial-gradient30);
      }

      .st4 {
        fill: url(#radial-gradient31);
      }

      .st5 {
        fill: url(#radial-gradient23);
      }

      .st6 {
        fill: url(#radial-gradient22);
      }

      .st7 {
        fill: url(#radial-gradient20);
      }

      .st8 {
        fill: url(#radial-gradient26);
      }

      .st9 {
        fill: url(#radial-gradient25);
      }

      .st10 {
        fill: url(#radial-gradient24);
      }

      .st11 {
        fill: url(#radial-gradient27);
      }

      .st12 {
        fill: url(#radial-gradient21);
      }

      .st13 {
        fill: url(#radial-gradient28);
      }

      .st14 {
        fill: url(#radial-gradient29);
      }

      .st15 {
        fill: url(#radial-gradient16);
      }

      .st16 {
        fill: url(#radial-gradient17);
      }

      .st17 {
        fill: url(#radial-gradient12);
      }

      .st18 {
        fill: url(#radial-gradient15);
      }

      .st19 {
        fill: url(#radial-gradient18);
      }

      .st20 {
        fill: url(#radial-gradient10);
      }

      .st21 {
        fill: url(#radial-gradient19);
      }

      .st22 {
        fill: url(#radial-gradient13);
      }

      .st23 {
        fill: url(#radial-gradient11);
      }

      .st24 {
        fill: url(#radial-gradient14);
      }

      .st25 {
        fill: url(#radial-gradient);
      }

      .st26 {
        fill: url(#radial-gradient1);
      }

      .st27 {
        fill: url(#radial-gradient6);
      }

      .st28 {
        fill: url(#radial-gradient9);
      }

      .st29 {
        fill: url(#radial-gradient8);
      }

      .st30 {
        fill: url(#radial-gradient3);
      }

      .st31 {
        fill: url(#radial-gradient2);
      }

      .st32 {
        fill: url(#radial-gradient5);
      }

      .st33 {
        fill: url(#radial-gradient4);
      }

      .st34 {
        fill: url(#radial-gradient7);
      }

      .st35 {
        fill: #f1f2f2;
        stroke: #fff;
        stroke-linecap: round;
        stroke-linejoin: round;
        stroke-width: .75px;
      }
    </style>
    <radialGradient id="radial-gradient" cx="75.08" cy="77.28" fx="75.08" fy="77.28" r="46.29" gradientUnits="userSpaceOnUse">
      <stop offset="0" stop-color="#0396c7"/>
      <stop offset="1" stop-color="#73cdda"/>
    </radialGradient>
    <radialGradient id="radial-gradient1" cx="171.51" fx="171.51" xlink:href="#radial-gradient"/>
    <radialGradient id="radial-gradient2" cx="267.94" fx="267.94" r="46.29" xlink:href="#radial-gradient"/>
    <radialGradient id="radial-gradient3" cx="364.36" fx="364.36" xlink:href="#radial-gradient"/>
    <radialGradient id="radial-gradient4" cx="460.79" fx="460.79" r="46.29" xlink:href="#radial-gradient"/>
    <radialGradient id="radial-gradient5" cx="557.21" fx="557.21" r="46.29" xlink:href="#radial-gradient"/>
    <radialGradient id="radial-gradient6" cx="653.64" fx="653.64" r="46.29" xlink:href="#radial-gradient"/>
    <radialGradient id="radial-gradient7" cx="750.06" fx="750.06" r="46.29" xlink:href="#radial-gradient"/>
    <radialGradient id="radial-gradient8" cx="846.49" fx="846.49" r="46.29" xlink:href="#radial-gradient"/>
    <radialGradient id="radial-gradient9" cx="942.92" fx="942.92" r="46.29" xlink:href="#radial-gradient"/>
    <radialGradient id="radial-gradient10" cy="180.1" fy="180.1" xlink:href="#radial-gradient"/>
    <radialGradient id="radial-gradient11" cx="171.51" cy="180.1" fx="171.51" fy="180.1" xlink:href="#radial-gradient"/>
    <radialGradient id="radial-gradient12" cx="267.94" cy="180.1" fx="267.94" fy="180.1" r="46.29" xlink:href="#radial-gradient"/>
    <radialGradient id="radial-gradient13" cx="364.36" cy="180.1" fx="364.36" fy="180.1" xlink:href="#radial-gradient"/>
    <radialGradient id="radial-gradient14" cx="460.79" cy="180.1" fx="460.79" fy="180.1" r="46.29" xlink:href="#radial-gradient"/>
    <radialGradient id="radial-gradient15" cx="557.21" cy="180.1" fx="557.21" fy="180.1" r="46.29" xlink:href="#radial-gradient"/>
    <radialGradient id="radial-gradient16" cx="653.64" cy="180.1" fx="653.64" fy="180.1" r="46.29" xlink:href="#radial-gradient"/>
    <radialGradient id="radial-gradient17" cx="750.06" cy="180.1" fx="750.06" fy="180.1" r="46.29" xlink:href="#radial-gradient"/>
    <radialGradient id="radial-gradient18" cx="846.49" cy="180.1" fx="846.49" fy="180.1" r="46.29" xlink:href="#radial-gradient"/>
    <radialGradient id="radial-gradient19" cx="942.92" cy="180.1" fx="942.92" fy="180.1" r="46.29" xlink:href="#radial-gradient"/>
    <radialGradient id="radial-gradient20" cy="282.92" fy="282.92" xlink:href="#radial-gradient"/>
    <radialGradient id="radial-gradient21" cx="171.51" cy="282.92" fx="171.51" fy="282.92" xlink:href="#radial-gradient"/>
    <radialGradient id="radial-gradient22" cx="267.94" cy="282.92" fx="267.94" fy="282.92" r="46.29" xlink:href="#radial-gradient"/>
    <radialGradient id="radial-gradient23" cx="364.36" cy="282.92" fx="364.36" fy="282.92" xlink:href="#radial-gradient"/>
    <radialGradient id="radial-gradient24" cx="460.79" cy="282.92" fx="460.79" fy="282.92" r="46.29" xlink:href="#radial-gradient"/>
    <radialGradient id="radial-gradient25" cx="557.21" cy="282.92" fx="557.21" fy="282.92" r="46.29" xlink:href="#radial-gradient"/>
    <radialGradient id="radial-gradient26" cx="653.64" cy="282.92" fx="653.64" fy="282.92" r="46.29" xlink:href="#radial-gradient"/>
    <radialGradient id="radial-gradient27" cx="750.06" cy="282.92" fx="750.06" fy="282.92" r="46.29" xlink:href="#radial-gradient"/>
    <radialGradient id="radial-gradient28" cx="846.49" cy="282.92" fx="846.49" fy="282.92" r="46.29" xlink:href="#radial-gradient"/>
    <radialGradient id="radial-gradient29" cx="942.92" cy="282.92" fx="942.92" fy="282.92" r="46.29" xlink:href="#radial-gradient"/>
    <radialGradient id="radial-gradient30" cy="385.73" fy="385.73" xlink:href="#radial-gradient"/>
    <radialGradient id="radial-gradient31" cx="171.51" cy="385.73" fx="171.51" fy="385.73" xlink:href="#radial-gradient"/>
    <radialGradient id="radial-gradient32" cx="267.94" cy="385.73" fx="267.94" fy="385.73" r="46.29" xlink:href="#radial-gradient"/>
    <radialGradient id="radial-gradient33" cx="364.36" cy="385.73" fx="364.36" fy="385.73" xlink:href="#radial-gradient"/>
    <radialGradient id="radial-gradient34" cx="460.79" cy="385.73" fx="460.79" fy="385.73" r="46.29" xlink:href="#radial-gradient"/>
  </defs>
  <circle class="st25" cx="75.08" cy="77.28" r="46.29"/>
  <circle class="st26" cx="171.51" cy="77.28" r="46.29"/>
  <circle class="st31" cx="267.94" cy="77.28" r="46.29"/>
  <circle class="st30" cx="364.36" cy="77.28" r="46.29"/>
  <circle class="st33" cx="460.79" cy="77.28" r="46.29"/>
  <circle class="st32" cx="557.21" cy="77.28" r="46.29"/>
  <circle class="st27" cx="653.64" cy="77.28" r="46.29"/>
  <circle class="st34" cx="750.06" cy="77.28" r="46.29"/>
  <circle class="st29" cx="846.49" cy="77.28" r="46.29"/>
  <circle class="st28" cx="942.92" cy="77.28" r="46.29"/>
  <circle class="st20" cx="75.08" cy="180.1" r="46.29"/>
  <circle class="st23" cx="171.51" cy="180.1" r="46.29"/>
  <circle class="st17" cx="267.94" cy="180.1" r="46.29"/>
  <circle class="st22" cx="364.36" cy="180.1" r="46.29"/>
  <circle class="st24" cx="460.79" cy="180.1" r="46.29"/>
  <circle class="st18" cx="557.21" cy="180.1" r="46.29"/>
  <circle class="st15" cx="653.64" cy="180.1" r="46.29"/>
  <circle class="st16" cx="750.06" cy="180.1" r="46.29"/>
  <circle class="st19" cx="846.49" cy="180.1" r="46.29"/>
  <circle class="st21" cx="942.92" cy="180.1" r="46.29"/>
  <circle class="st7" cx="75.08" cy="282.92" r="46.29"/>
  <circle class="st12" cx="171.51" cy="282.92" r="46.29"/>
  <circle class="st6" cx="267.94" cy="282.92" r="46.29"/>
  <circle class="st5" cx="364.36" cy="282.92" r="46.29"/>
  <circle class="st10" cx="460.79" cy="282.92" r="46.29"/>
  <circle class="st9" cx="557.21" cy="282.92" r="46.29"/>
  <circle class="st8" cx="653.64" cy="282.92" r="46.29"/>
  <circle class="st11" cx="750.06" cy="282.92" r="46.29"/>
  <circle class="st13" cx="846.49" cy="282.92" r="46.29"/>
  <circle class="st14" cx="942.92" cy="282.92" r="46.29"/>
  <circle class="st3" cx="75.08" cy="385.73" r="46.29"/>
  <circle class="st4" cx="171.51" cy="385.73" r="46.29"/>
  <circle class="st2" cx="267.94" cy="385.73" r="46.29"/>
  <circle class="st1" cx="364.36" cy="385.73" r="46.29"/>
  <circle class="st0" cx="460.79" cy="385.73" r="46.29"/>
  <circle class="st35" cx="557.21" cy="385.73" r="46.29"/>
  <circle class="st35" cx="653.64" cy="385.73" r="46.29"/>
  <circle class="st35" cx="750.06" cy="385.73" r="46.29"/>
  <circle class="st35" cx="846.49" cy="385.73" r="46.29"/>
  <circle class="st35" cx="942.92" cy="385.73" r="46.29"/>
  <circle class="st35" cx="75.08" cy="488.55" r="46.29"/>
  <circle class="st35" cx="171.51" cy="488.55" r="46.29"/>
  <circle class="st35" cx="267.94" cy="488.55" r="46.29"/>
  <circle class="st35" cx="364.36" cy="488.55" r="46.29"/>
  <circle class="st35" cx="460.79" cy="488.55" r="46.29"/>
  <circle class="st35" cx="557.21" cy="488.55" r="46.29"/>
  <circle class="st35" cx="653.64" cy="488.55" r="46.29"/>
  <circle class="st35" cx="750.06" cy="488.55" r="46.29"/>
  <circle class="st35" cx="846.49" cy="488.55" r="46.29"/>
  <circle class="st35" cx="942.92" cy="488.55" r="46.29"/>
  <circle class="st35" cx="75.08" cy="591.37" r="46.29"/>
  <circle class="st35" cx="171.51" cy="591.37" r="46.29"/>
  <circle class="st35" cx="267.94" cy="591.37" r="46.29"/>
  <circle class="st35" cx="364.36" cy="591.37" r="46.29"/>
  <circle class="st35" cx="460.79" cy="591.37" r="46.29"/>
  <circle class="st35" cx="557.21" cy="591.37" r="46.29"/>
  <circle class="st35" cx="653.64" cy="591.37" r="46.29"/>
  <circle class="st35" cx="750.06" cy="591.37" r="46.29"/>
  <circle class="st35" cx="846.49" cy="591.37" r="46.29"/>
  <circle class="st35" cx="942.92" cy="591.37" r="46.29"/>
  <circle class="st35" cx="75.08" cy="694.19" r="46.29"/>
  <circle class="st35" cx="171.51" cy="694.19" r="46.29"/>
  <circle class="st35" cx="267.94" cy="694.19" r="46.29"/>
  <circle class="st35" cx="364.36" cy="694.19" r="46.29"/>
  <circle class="st35" cx="460.79" cy="694.19" r="46.29"/>
  <circle class="st35" cx="557.21" cy="694.19" r="46.29"/>
  <circle class="st35" cx="653.64" cy="694.19" r="46.29"/>
  <circle class="st35" cx="750.06" cy="694.19" r="46.29"/>
  <circle class="st35" cx="846.49" cy="694.19" r="46.29"/>
  <circle class="st35" cx="942.92" cy="694.19" r="46.29"/>
  <circle class="st35" cx="75.08" cy="797" r="46.29"/>
  <circle class="st35" cx="171.51" cy="797" r="46.29"/>
  <circle class="st35" cx="267.94" cy="797" r="46.29"/>
  <circle class="st35" cx="364.36" cy="797" r="46.29"/>
  <circle class="st35" cx="460.79" cy="797" r="46.29"/>
  <circle class="st35" cx="557.21" cy="797" r="46.29"/>
  <circle class="st35" cx="653.64" cy="797" r="46.29"/>
  <circle class="st35" cx="750.06" cy="797" r="46.29"/>
  <circle class="st35" cx="846.49" cy="797" r="46.29"/>
  <circle class="st35" cx="942.92" cy="797" r="46.29"/>
  <circle class="st35" cx="75.08" cy="899.82" r="46.29"/>
  <circle class="st35" cx="171.51" cy="899.82" r="46.29"/>
  <circle class="st35" cx="267.94" cy="899.82" r="46.29"/>
  <circle class="st35" cx="364.36" cy="899.82" r="46.29"/>
  <circle class="st35" cx="460.79" cy="899.82" r="46.29"/>
  <circle class="st35" cx="557.21" cy="899.82" r="46.29"/>
  <circle class="st35" cx="653.64" cy="899.82" r="46.29"/>
  <circle class="st35" cx="750.06" cy="899.82" r="46.29"/>
  <circle class="st35" cx="846.49" cy="899.82" r="46.29"/>
  <circle class="st35" cx="942.92" cy="899.82" r="46.29"/>
  <circle class="st35" cx="75.08" cy="1002.64" r="46.29"/>
  <circle class="st35" cx="171.51" cy="1002.64" r="46.29"/>
  <circle class="st35" cx="267.94" cy="1002.64" r="46.29"/>
  <circle class="st35" cx="364.36" cy="1002.64" r="46.29"/>
  <circle class="st35" cx="460.79" cy="1002.64" r="46.29"/>
  <circle class="st35" cx="557.21" cy="1002.64" r="46.29"/>
  <circle class="st35" cx="653.64" cy="1002.64" r="46.29"/>
  <circle class="st35" cx="750.06" cy="1002.64" r="46.29"/>
  <circle class="st35" cx="846.49" cy="1002.64" r="46.29"/>
  <circle class="st35" cx="942.92" cy="1002.64" r="46.29"/>
</svg>