<?xml version="1.0" encoding="UTF-8"?>
<svg id="_ò__1" data-name="ò‡_1" xmlns="http://www.w3.org/2000/svg" viewBox="0 0 2932.65 1152.37">
  <defs>
    <style>
      .cls-1 {
        fill: #b6b7b8;
      }

      .cls-2 {
        fill: #e5c38b;
      }

      .cls-3 {
        fill: #7f7f7f;
      }

      .cls-4 {
        fill: #d3d4d5;
      }
    </style>
  </defs>
  <path class="cls-4" d="M2932.65,556.63h-280.85l280.85-74.74v-42.5l-479.34,121.53v71.55h-74.57l-18.35-420.73h18.35v-75.85h-136.78v78.71h28.36l-28.36,417.87h-221.82V251.2h-38.62v-114.69h-45.6v68.2h-58.49v286.73h-12.65V176.81h-81.3v320.59l-63.74,70.09c-7.99-28.56-15.72-64.13-18.53-101.67-6.65-88.86,5.7-144.3,5.7-144.3l-3.53-.51c-61.16-8.83-123.65-8.38-184.62,1.32h0s16.15,62.77,3.8,145.11-48.06,165.03-48.06,165.03h-.03l-15.91-584.71h-69.08l-23.87,584.71h-43.74s-44.16-100.42-52.74-215.12c-8.59-114.7,7.36-186.25,7.36-186.25l-4.55-.66c-78.94-11.4-159.6-10.82-238.3,1.71h0s20.85,81.03,4.91,187.31c-15.95,106.28-62.03,213.02-62.03,213.02h-149.98s-57.87-131.6-69.12-281.92c-11.25-150.32,9.64-244.09,9.64-244.09l-5.97-.86c-103.45-14.94-209.16-14.18-312.3,2.24h0s27.33,106.19,6.43,245.47-81.29,279.16-81.29,279.16h-105.8l-15.91-584.71h-69.08l-23.87,584.71H0v519.9h2932.65v-595.74Z"/>
  <rect class="cls-2" y="1055.59" width="2932.65" height="96.78"/>
  <path class="cls-1" d="M2932.65,572.3l-12.36-19.76h-91.14l-14.6,26.86v35.5h-50.44v28.78h-16.81v-14.39h-22.84c-4.98-79.39-35.58-140.49-72.59-140.49-28.98,0-51.04,37.52-63.38,91.88h-40.29v43.81h-19.47v16.63h-14.16v30.38h-9.73v-50.21h-34.07v-8h-29.5v-56.67h-32.74v60.67h-45.25v-23.2l-14.21-24.72h-53.67l-13.15,24.72v4.56h-29.89c-9.09-9.4-27.99-29.02-38.51-40.51v-107.83l-59.99-20.16v99.65h-7.37v-27.86h-17.36v27.86h-17.36v39.56h-16.84v9.51h-44.73v31.57l-42.1-35.37v-47.54h-51.57v10.4h-23.15v-23.72l-22.1-59.71-22.1,59.71v22.96l-23.15-28.8-17.36,28.8v56.91h-22.63v15.59h-33.68v-92.04l-18.24-13.19v-88.75h-48.06v76.83h-47.71v6.59h-61.74l-22.1,18.51v116.01h-7.37v-47.4h-15.79v-91.52h-43.15v-106.4h-108.39v152.52h-16.84v-46.12h-22.1v-148.24h-89.45v60.86h-25.26v151.44h-18.94v-69.29h-16.84c0-21.01-23.56-38.03-52.62-38.03s-52.62,17.03-52.62,38.03h-16.84v64.66h-31.57v95.66h-34.73V173.06h-14.73v-4.63c0-7.31-8.2-13.24-18.32-13.24h-14.62L977.83,0l-14.45,155.18h-16.69c-10.12,0-18.32,5.93-18.32,13.24v4.63h-13.68v242.46l-19.47-11.4-67.88,39.75v27.38h-36.31v42.22h-21.05l-8.94,24.48h-22.11v8.61h-21.31v61.62h-10.26v26.24h-34.73v-196.26l-203.63-21.68v178.29h-17.36v-157.75h-15.17v-13.19h-47.01v13.19h-15.17v157.75h-222.58v27.1h-78.93v21.11h-22.1v13.12h-22.1v-157.46H0v556.96h2932.65v-483.3Z"/>
  <polygon class="cls-3" points="2932.65 885.8 2931.25 885.8 2931.25 957.31 2890.95 965.25 2890.95 768.61 2876.29 768.61 2876.29 709.68 2801.18 709.68 2801.18 841.44 2785.61 841.44 2785.61 954 2772.79 954 2772.79 780.35 2665.62 780.35 2665.62 855.34 2639.97 855.34 2639.97 827.54 2614.32 809 2567.61 809 2542.88 826.21 2542.88 857.33 2505.32 857.33 2505.32 815.62 2406.4 815.62 2406.4 908.97 2368.84 908.97 2368.84 969.22 2317.55 969.22 2317.55 783.17 2274.5 689.82 2239.69 785.16 2187.48 652.08 2138.99 785.82 2138.99 830.12 2117.34 814.46 2117.34 749.13 2080.62 693.32 2040.6 748.45 2040.6 815.49 2016.59 832.84 2016.59 894.77 1984.58 894.77 1984.58 870.27 1907.37 870.27 1907.37 812.42 1844.29 812.42 1844.29 975.76 1822.63 975.76 1822.63 946.5 1803.8 946.5 1803.8 864.83 1773.67 864.83 1773.67 694.68 1709.65 694.68 1709.65 760.7 1594.78 760.7 1594.78 803.58 1556.17 831.48 1556.17 719.86 1456.37 719.86 1456.37 785.88 1423.41 785.88 1423.41 768.87 1381.99 768.87 1381.99 652.49 1333.97 687.2 1333.97 794.05 1307.6 794.05 1307.6 813.1 1220.98 813.1 1220.98 849.8 1176.73 849.8 1176.73 828.76 1076.92 828.76 1076.92 772.27 978.06 772.27 978.06 559.93 827.41 559.93 827.41 841.69 763.39 841.69 763.39 870.27 724.79 870.27 724.79 841.69 679.59 841.69 679.59 825.35 661.7 825.35 661.7 762.06 635.34 762.06 635.34 747.77 588.26 747.77 571.31 735.52 571.31 680.39 498.81 680.39 498.81 738.24 469.63 738.24 469.63 717.1 397.13 706.25 397.13 736.2 384.89 736.2 384.89 849.8 336.87 849.8 336.87 953.98 295.44 953.98 295.44 783.84 273 783.84 273 757.39 221.83 616.24 166.73 756.69 129.99 656.07 84.56 754.59 84.56 950.94 30.42 950.94 30.42 887.36 0 887.36 0 1152.37 2932.65 1152.37 2932.65 885.8"/>
</svg>